<?xml version="1.0" encoding="utf-8"?>
<!-- Generator: Adobe Illustrator 21.0.0, SVG Export Plug-In . SVG Version: 6.00 Build 0)  -->
<svg version="1.1" id="Capa_1" xmlns="http://www.w3.org/2000/svg" xmlns:xlink="http://www.w3.org/1999/xlink" x="0px" y="0px"
	 viewBox="0 0 473.4 474.8" style="enable-background:new 0 0 473.4 474.8;" xml:space="preserve">
<style type="text/css">
	.st0{fill:#13194F;}
	.st1{fill:#1805fe;}
</style>
<g>
	<path class="st1" d="M472.2,407.1c0.5-2.5,0.7-3.8,1.2-6.3c-22.8-4.2-45.6-7.9-68.6-11l1.2-6.4l-1.9-0.4
		c-17.6-3.2-35.4-5.9-53.2-8.1c4.2-6.6,8-13.4,11.5-20.3c16-32.1,24-67.7,24-106V130c0-7.2-6-13.1-13.3-13.1H80.4
		C73,116.9,67,122.7,67,130v118.7c0,38.3,8.1,74,24,106c3.7,7.5,7.9,14.8,12.5,21.9c-13.8,1.9-27.5,4-41.2,6.5l-1.9,0.4l1.4,7.4
		c-20.7,2.9-41.3,6.3-61.8,10.1c0.5,2.5,0.7,3.8,1.2,6.3c5.6,2.1,8.4,3.1,14,5.2c8.9,3.4,17.7,6.9,26.5,10.5
		c-7.2,6.1-14.3,12.3-21.3,18.6c-4.4,3.9-6.5,5.9-10.8,9.8c0.5,2.5,0.7,3.8,1.2,6.3c20.5-3.8,41.1-7.1,61.7-10l0.4,2.3l1.9-0.3
		c28.4-5.1,57.1-8.9,85.8-11.2c32.7,25.4,61.2,35.7,61.5,35.8c1.5,0.5,3,0.8,4.6,0.8c1.6,0,3.1-0.3,4.6-0.8
		c0.3-0.1,29.7-10.9,62.6-36.7c32.7,2.3,65.3,6.3,97.7,12.1l1.9,0.3l0.4-1.9c0.1-0.4,0.2-0.9,0.2-1.3c22.9,3.1,45.7,6.7,68.5,10.9
		c0.5-2.5,0.7-3.8,1.2-6.3c-4.3-3.9-6.5-5.9-10.8-9.8c-7-6.3-14.1-12.5-21.3-18.6c8.8-3.6,17.6-7.1,26.5-10.5
		C463.8,410.2,466.6,409.2,472.2,407.1z M370.6,155.6v93.1c0,25.5-3.7,49.4-11.1,71.7l-125-74.4l-0.4-90.5H370.6z M82.9,248.6v-93.1
		c0.2,0,0.3,0,0.5,0h134.9l0.4,90.4L93,317.6C86.3,296.1,82.9,273.1,82.9,248.6z M117,415.3c-0.9,1.8-2.1,3.1-3.6,4.1
		c-1.6,1-3.3,1.6-5.2,1.9c-1.1,0.2-2.1,0.2-3.1,0.1c-1.8-0.2-3.5-0.7-5-1.7c-2.4-1.5-3.8-3.9-4.3-7.2c-0.9-6-1.4-9-2.4-15.1
		c2.6-0.4,3.9-0.6,6.6-1c0.9,6,1.4,9.1,2.3,15.1c0.2,1.5,0.8,2.6,1.7,3.3c0.2,0.1,0.4,0.2,0.6,0.3c0.8,0.4,1.8,0.6,3,0.4
		c1.5-0.2,2.6-0.8,3.3-1.7c0.7-0.9,0.9-2.2,0.7-3.7c-0.8-6-1.3-9.1-2.1-15.1c2.6-0.4,3.9-0.5,6.6-0.9c0.8,6.1,1.2,9.1,2,15.1
		C118.1,411.5,117.8,413.5,117,415.3z M147.3,416.2c-4.9-6-7.4-9-12.5-14.9c0.7,6.3,1.1,9.5,1.7,15.8c0,0.1,0,0.2,0,0.3
		c-2.6,0.3-3.8,0.4-6.4,0.7c-0.4-3.3-0.7-6-1-8.6c-0.6-5.4-1.2-9.9-2-16.8c2.6-0.3,3.9-0.5,6.6-0.8c5.1,5.9,7.6,8.9,12.6,14.9
		c-0.1-0.9-0.2-1.7-0.2-2.5c-0.5-4.9-0.8-8-1.3-13.5c2.6-0.3,4-0.4,6.6-0.6c0.8,8.6,1.2,13.6,1.9,21.1c0.1,1.4,0.3,2.8,0.4,4.4
		C151.1,415.9,149.9,416,147.3,416.2z M164.9,414.7c-0.8-10.2-1.2-15.3-2-25.5c2.6-0.2,4-0.3,6.6-0.5c0.7,10.2,1.1,15.3,1.8,25.5
		C168.8,414.4,167.5,414.5,164.9,414.7z M217.7,334.6c2.3,0,4.4-0.9,6-2.3c1,0.9,2.1,1.5,3.4,1.9c1.1,3.7,4.5,6.4,8.6,6.4h0.5
		c-5.9,5.2-9.4,12.7-9.4,20.9c0,1.6,1.3,3,3,3c1.6,0,3-1.3,3-3c0-9,5.4-17.7,15.8-21c3.2-1.1,2.6-5.8-0.9-5.8c0,0-11.9,0-11.9,0
		c-1.6,0-3-1.3-3-3c0-1.6,1.3-3,3-3c1.3,0,10.7,0,11.9,0c3.4,0,6.4,1.9,8,4.9c0.8,1.6,0.9,3.9,0.1,6.1l-9.4,28.2
		c-4.3-0.1-8.7-0.1-13-0.1c-8.6,0-17.1,0.1-25.7,0.4l-3.6-14.9c-0.8-3.4-1.2-6.9-1.2-10.4v-37.1c0-1.6,1.3-3,3-3c1.6,0,3,1.3,3,3
		c0,2.3,0,17.5,0,19.9C208.7,330.5,212.8,334.6,217.7,334.6z M214.7,325.6v-6c0-1.6,1.3-3,3-3s3,1.3,3,3v6c0,1.6-1.3,3-3,3
		S214.7,327.2,214.7,325.6z M226.7,325.6c0-1.3,0-10.7,0-11.9c0-1.6,1.3-3,3-3s3,1.3,3,3v9.5c-2.2,0.8-4.1,2.5-5.1,4.6
		C227,327.2,226.7,326.4,226.7,325.6z M238.6,322.6v-28.9c0-1.6,1.3-3,3-3c1.6,0,3,1.3,3,3v28.9
		C242.4,322.6,240.8,322.6,238.6,322.6z M263.2,412.5c-3-0.1-4.5-0.1-7.5-0.2c-2.3-4-3.4-6-5.7-10.1c-0.3,0-0.5,0-0.8,0
		c-0.1,4-0.1,6-0.2,9.9c-2.6,0-3.9-0.1-6.4-0.1c0.1-10.2,0.2-15.3,0.3-25.6c4.3,0,6.4,0.1,10.7,0.2c3.1,0.1,5.6,0.9,7.3,2.5
		c1.7,1.6,2.5,3.5,2.4,5.6c0,1.5-0.6,2.9-1.6,4.3c-1,1.4-2.5,2.3-4.7,2.9C259.5,406.2,260.7,408.3,263.2,412.5z M221.7,396.7
		c3.4,0,5.1-0.1,8.6-0.1c0,1.9,0,2.8,0,4.7c-3.4,0-5.1,0-8.5,0.1c0,2.4,0,3.6,0.1,5.9c3.8-0.1,5.8-0.1,9.6-0.1c0,1.9,0,2.8,0,4.7
		c-6.4,0-9.6,0.1-16,0.2c-0.2-10.3-0.3-15.4-0.5-25.6c6.6-0.1,9.9-0.2,16.4-0.2c0,1.9,0,2.8,0,4.7c-3.9,0-5.9,0-9.8,0.1
		C221.6,393.4,221.7,394.5,221.7,396.7z M206,386.9c-3.5,10.3-5.3,15.5-8.6,25.9c-3.2,0.1-4.8,0.2-8,0.4c-4.2-10-6.4-15-10.9-25
		c2.8-0.2,4.2-0.3,7-0.4c3.1,7.6,4.6,11.5,7.6,19.1c2.3-7.9,3.4-11.9,5.8-19.7C201.8,387,203.2,386.9,206,386.9z M226.7,458.8
		c-3.7-1.5-20.5-8.4-41.3-22.3c16-0.9,31.9-1.3,47.9-1.3c11.9,0,23.8,0.3,35.7,0.7C247.7,450.2,230.5,457.3,226.7,458.8z
		 M281.1,396.6c0.5,0.5,1.1,0.9,1.8,1.2c0.8,0.3,1.6,0.6,2.6,0.9c0.9,0.3,1.9,0.6,2.8,1c0.9,0.4,1.8,0.8,2.5,1.4
		c0.7,0.5,1.3,1.3,1.7,2.2c0.4,0.9,0.6,2,0.5,3.2c-0.1,2.2-1.2,3.9-3.1,5.4c-1.9,1.4-4.3,2-7.3,1.9c-3-0.2-5.3-1-7.1-2.4
		c-1.8-1.5-2.6-3.5-2.5-6c2.8,0.1,4.1,0.2,6.9,0.3c0.1,2,1.1,3.1,3.1,3.2c0.9,0.1,1.7-0.1,2.2-0.6s0.9-1,0.9-1.8
		c0-0.7-0.2-1.3-0.6-1.8c-0.5-0.5-1.1-0.9-1.8-1.2c-0.8-0.3-1.6-0.6-2.5-0.9c-0.9-0.3-1.9-0.6-2.8-1c-0.9-0.4-1.8-0.8-2.5-1.3
		c-0.8-0.5-1.3-1.2-1.8-2.1c-0.4-0.9-0.6-2-0.6-3.2c0.1-2.4,1.1-4.2,3.1-5.6c1.9-1.3,4.4-1.9,7.3-1.8c2.9,0.2,5.2,0.9,7,2.3
		c1.7,1.4,2.5,3.4,2.4,6.1c-2.8-0.2-4.3-0.3-7.1-0.4c0-0.9-0.3-1.7-0.8-2.2c-0.5-0.5-1.2-0.8-2-0.9c-0.8,0-1.5,0.1-2,0.5
		c-0.5,0.4-0.8,1-0.9,1.7C280.4,395.4,280.6,396.1,281.1,396.6z M252.5,367.9l8.8-26.5c1.3-3.8,1.1-7.6-0.5-10.7
		c-2.1-4.1-5.9-6.9-10.3-7.8v-29.2c0-4.9-4-9-9-9c-4.9,0-9,4-9,9v11.5c-0.9-0.3-1.9-0.5-3-0.5c-4.1,0-7.6,2.8-8.6,6.6
		c-1-0.4-2.1-0.6-3.3-0.6c-1,0-2.1,0.2-3,0.5v-5.5c0-4.9-4-9-9-9c-4.9,0-9,4-9,9v37.1c0,4,0.5,7.9,1.4,11.8l3.3,13.7
		c-26.8,0.9-53.6,3-80.4,6.1c-9.2-13.1-16.7-27-22.6-41.6l128.1-73.1l127.4,75.8c-5.5,13.1-12.4,25.6-20.5,37.5
		C306.4,370.2,279.4,368.5,252.5,367.9z M310.8,400.7c-0.4,4.5-0.8,8.7-1.3,14.7c-2.6-0.2-3.8-0.3-6.4-0.5c0.2-2.6,0.4-4.8,0.6-6.9
		c0.5-6.2,0.9-10.9,1.5-18.5c2.6,0.2,4,0.3,6.6,0.5C311.4,394.1,311.1,397.5,310.8,400.7z M342.2,397.8c-2.9-0.3-4.3-0.5-7.1-0.8
		c-0.1,0-0.1,0-0.2,0c0,0.1,0,0.2,0,0.4c-0.9,8-1.4,12.2-2.3,20.3c-2.6-0.3-3.8-0.4-6.4-0.7c0.5-4.3,0.8-7.5,1.1-10.8
		c0.3-3,0.6-6,1.1-9.9c-2.9-0.3-4.4-0.5-7.3-0.7c0.2-1.9,0.3-2.8,0.5-4.7c7,0.7,11.1,1.1,17.1,1.8c1.3,0.2,2.7,0.3,4.2,0.5
		C342.6,395,342.5,395.9,342.2,397.8z M370.2,404.5c-2.1,2.7-4,5.3-6.7,8.9c-0.5,3.3-0.7,4.9-1.2,8.1c-2.5-0.4-3.8-0.6-6.4-0.9
		c0.5-3.3,0.7-4.9,1.2-8.2c-2.7-7.4-4.1-11.1-6.9-18.4c3,0.4,4.5,0.6,7.4,1c1.4,4.9,2.1,7.3,3.5,12.2c2.7-4.3,4-6.4,6.8-10.7
		c1.2,0.2,2.2,0.3,3.1,0.5c1.3,0.2,2.6,0.4,4.4,0.7C373.3,400.4,371.7,402.5,370.2,404.5z"/>
	<path class="st1" d="M35.2,53.2C40.2,64,45.1,74.9,50,85.7c-1.8,0.8-2.7,1.2-4.4,2.1c2.3,4.8,3.4,7.3,5.7,12.1
		C65.5,93.2,80,87.4,94.9,82.4c-2.3-6.8-3.4-10.2-5.6-16.9c-5.6,1.8-8.3,2.8-13.8,4.9c0.6,1.7,0.9,2.5,1.6,4.2
		c-5.5,2-8.2,3.1-13.6,5.3c-4.5-11-9.1-22-13.6-33c2-0.8,2.9-1.2,4.9-2c-2-5-3-7.5-5-12.4c-10.1,4-15.1,6.2-25,10.9
		c2.3,4.8,3.4,7.3,5.7,12.1C32.3,54.5,33.3,54.1,35.2,53.2z"/>
	<path class="st1" d="M104.4,28.3c-0.3,12.4-0.3,24.7,0,37.1c-1.8,0.5-2.8,0.8-4.6,1.4c1.6,5.1,2.4,7.7,3.9,12.8
		c8.9-2.7,13.4-4,22.4-6.2c-1.3-5.2-1.9-7.8-3.2-13c-1.4,0.3-2.1,0.5-3.5,0.9c0-1.9,0-2.8,0.1-4.6c5.7-1.4,8.5-2.1,14.2-3.3
		c0.8,1.6,1.3,2.5,2.1,4.1c-1.4,0.3-2.1,0.4-3.5,0.8c1.1,5.2,1.7,7.8,2.9,13.1c9.1-2,13.6-2.8,22.8-4.3c-0.8-5.3-1.2-7.9-2.1-13.2
		c-1.9,0.3-2.8,0.5-4.7,0.8c-7.1-15.5-14.8-30.6-22.7-45.7c-11,2.4-21.8,5-32.7,7.9c1.4,5.2,2.2,7.7,3.6,12.9
		C101.4,29.2,102.4,28.9,104.4,28.3z M120.7,28.9c2.7,4.9,4,7.3,6.7,12.2c-2.9,0.6-4.4,1-7.3,1.7C120.2,37.2,120.4,34.5,120.7,28.9z
		"/>
	<path class="st1" d="M176.3,64.6c11-1.2,16.6-1.6,27.6-2.1c3.5-3.7,5.4-5.5,9.1-9.2c-0.2-10.7-0.3-16.1-0.4-26.8
		c-10.1,0.2-15.1,0.4-25.2,1.1c0.4,5.3,0.6,8,1,13.4c3.9-0.3,5.9-0.4,9.8-0.6c0.1,1.8,0.1,2.7,0.2,4.4c-1.8,1.9-2.8,2.8-4.5,4.7
		c-3.8,0.2-5.7,0.4-9.5,0.7c-2.1-1.6-3.1-2.4-5.2-4c-1-10.7-1.6-16-2.6-26.6c1.9-2,2.8-3,4.7-4.9c4.1-0.4,6.2-0.5,10.4-0.8
		c2.2,1.7,3.3,2.5,5.4,4.2c0.1,1.8,0.1,2.7,0.2,4.4c6.1-0.3,9.1-0.4,15.2-0.5c-0.1-5.3-0.1-8-0.2-13.4c-4.3-3.5-6.4-5.2-10.8-8.6
		c-10.7,0.4-21.4,1.2-32,2.4c-3.9,4-5.8,6.1-9.4,10.2c2,14.7,3.9,29.5,5.9,44.2C170.1,59.9,172.2,61.5,176.3,64.6z"/>
	<path class="st1" d="M246.2,49.8c-1.4-0.1-2.1-0.1-3.6-0.2c0.6-1.8,0.9-2.6,1.5-4.4c5.8,0.3,8.7,0.6,14.4,1.1
		c0.3,1.8,0.5,2.7,0.8,4.6c-1.4-0.1-2.1-0.2-3.6-0.3c-0.5,5.3-0.7,8-1.2,13.3c9.2,0.8,13.8,1.4,23,2.7c0.8-5.3,1.2-7.9,2-13.2
		c-1.9-0.3-2.8-0.4-4.7-0.7c-2.2-16.9-4.9-33.7-8-50.4c-11.1-1-22.2-1.8-33.4-2.2c-0.2,5.4-0.2,8-0.4,13.4c2.1,0.1,3.1,0.1,5.2,0.2
		c-3.9,11.7-7.6,23.5-11,35.4c-1.9,0-2.9,0-4.8-0.1c0,5.3-0.1,8-0.1,13.4c9.2,0.1,13.8,0.2,23.1,0.8
		C245.7,57.8,245.9,55.1,246.2,49.8z M253.4,19c1.1,5.5,1.7,8.2,2.7,13.6c-3-0.3-4.5-0.4-7.4-0.6C250.5,26.8,251.4,24.2,253.4,19z"
		/>
	<path class="st1" d="M300.7,68.4c0.7,1.1,1.1,1.6,1.8,2.7c8.2,1.8,12.2,2.7,20.3,4.9c4.5-2.5,6.8-3.7,11.5-6
		c2.5-8.6,3.8-12.8,6.3-21.4c-2.8-4.6-4.3-6.8-7.3-11.4c-7.9-2.1-11.9-3.1-19.9-4.9c-1.6-2.2-2.4-3.3-4.1-5.4c2.4-1.3,3.6-2,6-3.3
		c5.1,1.1,7.6,1.7,12.7,3c0.8,1.1,1.2,1.7,2,2.8c-0.2,0.9-0.3,1.3-0.6,2.2c6,1.6,9,2.4,15,4.2c2-6.8,3-10.3,5.1-17.1
		c-6.2-1.8-9.3-2.7-15.6-4.3c-0.2,0.9-0.3,1.3-0.6,2.2c-0.8-1.1-1.2-1.7-2.1-2.8c-9.4-2.4-14.1-3.4-23.6-5.3
		c-4.9,2.7-7.3,4.1-12.1,6.9c-1.2,7-1.8,10.6-3,17.6c3.4,4.2,5,6.3,8.2,10.6c7.8,1.5,11.6,2.4,19.4,4.3c1.5,2.2,2.2,3.3,3.7,5.5
		c-0.4,1.7-0.7,2.6-1.1,4.3c-2.3,1.2-3.5,1.9-5.8,3.2c-4.7-1.1-7-1.7-11.7-2.7c-0.8-1.1-1.1-1.6-1.9-2.7c0.2-0.9,0.3-1.3,0.5-2.2
		c-5.7-1.2-8.6-1.7-14.3-2.7c-1.2,7-1.8,10.6-3,17.6c5.5,0.9,8.2,1.5,13.7,2.6C300.4,69.7,300.5,69.3,300.7,68.4z"/>
	<path class="st1" d="M349.3,70c-1.8-0.6-2.8-0.9-4.6-1.5c-1.6,5.1-2.5,7.6-4.1,12.7c8.9,2.9,13.3,4.4,22,7.8
		c1.9-5,2.9-7.5,4.8-12.5c-1.8-0.7-2.7-1-4.5-1.7c1.9-5,2.8-7.5,4.7-12.5c5.6,2.1,8.4,3.2,14,5.5c-2.1,4.9-3.1,7.4-5.1,12.4
		c-1.8-0.7-2.7-1.1-4.5-1.8c-2,5-3,7.4-5,12.4c8.7,3.5,13,5.4,21.6,9.5c2.3-4.8,3.4-7.3,5.7-12.1c-1.8-0.8-2.7-1.3-4.4-2.1
		c5-10.8,9.9-21.6,14.9-32.4c1.9,0.9,2.9,1.3,4.8,2.3c2.3-4.8,3.4-7.3,5.7-12.1c-9.9-4.7-14.9-6.9-25-10.9c-2,5-3,7.5-5,12.4
		c2,0.8,2.9,1.2,4.9,2c-1.4,3.3-2.1,4.9-3.4,8.2c-5.7-2.4-8.6-3.5-14.4-5.7c1.3-3.3,1.9-5,3.1-8.4c2,0.7,3,1.1,4.9,1.9
		c1.9-5,2.9-7.5,4.9-12.5c-10.1-3.9-15.2-5.8-25.5-9.1c-1.6,5.1-2.5,7.6-4.1,12.7c2,0.6,3,1,5,1.6C356.9,47.5,353.1,58.8,349.3,70z"
		/>
	<path class="st1" d="M427.4,92.9c2.7-4.6,4-7,6.6-11.6c-5.5-3.1-8.2-4.6-13.7-7.5c-2.5,4.7-3.7,7.1-6.2,11.9
		C419.4,88.4,422.1,89.9,427.4,92.9z"/>
	<path class="st1" d="M25,85.6c-2.5-4.7-3.7-7.1-6.2-11.9c-5.5,2.9-8.3,4.4-13.7,7.5c2.7,4.6,4,7,6.6,11.6
		C16.9,89.9,19.6,88.5,25,85.6z"/>
	<path class="st1" d="M289,258.1l3.4,0.9c0.4,0.1,0.9,0.1,1.3-0.1c0.4-0.2,0.7-0.6,0.8-1.1l20.3-70.2c0.1-0.5,0.1-0.9-0.1-1.3
		c-0.2-0.4-0.6-0.7-1.1-0.8l-3.4-0.9c-0.4-0.1-0.9-0.1-1.3,0.1c-0.4,0.2-0.7,0.6-0.8,1.1L287.8,256c-0.1,0.5-0.1,0.9,0.1,1.3
		C288.2,257.7,288.5,258,289,258.1z"/>
	<path class="st1" d="M279.8,248.4c0.4,0.4,0.8,0.5,1.3,0.5c0.5,0,0.9-0.2,1.3-0.5l2.7-2.7c0.4-0.4,0.5-0.8,0.5-1.3
		c0-0.5-0.2-0.9-0.5-1.3l-21.4-21.4l21.4-21.4c0.4-0.4,0.5-0.8,0.5-1.2c0-0.5-0.2-0.9-0.5-1.3l-2.7-2.7c-0.4-0.4-0.8-0.5-1.3-0.5
		c-0.5,0-0.9,0.2-1.3,0.5l-25.3,25.3c-0.4,0.4-0.5,0.8-0.5,1.3c0,0.5,0.2,0.9,0.5,1.3L279.8,248.4z"/>
	<path class="st1" d="M317.5,244.4c0,0.5,0.2,0.9,0.5,1.3l2.7,2.7c0.4,0.4,0.8,0.5,1.3,0.5c0.5,0,0.9-0.2,1.3-0.5l25.4-25.3
		c0.4-0.4,0.5-0.8,0.5-1.3c0-0.5-0.2-0.9-0.5-1.3l-25.4-25.3c-0.4-0.4-0.8-0.5-1.3-0.5c-0.5,0-0.9,0.2-1.3,0.5l-2.7,2.7
		c-0.4,0.4-0.5,0.8-0.5,1.3c0,0.5,0.2,0.9,0.5,1.3l21.4,21.4L318,243.2C317.6,243.5,317.5,244,317.5,244.4z"/>
	<path class="st1" d="M145.7,186.2C145.7,186.2,145.7,186.2,145.7,186.2c-11,0.4-19.9,10.5-20,22.7c0,1.4,1.1,2.5,2.5,2.5
		c0,0,0,0,0,0c1.4,0,2.5-1.1,2.5-2.5c0.1-9.4,6.8-17.3,15-17.6c1.4,0,2.5-1.2,2.5-2.6C148.2,187.3,147.1,186.2,145.7,186.2z"/>
	<path class="st1" d="M146.3,174.5c-0.3,0-0.7,0-1,0c-17.2,0.5-31.3,15-31.4,32.2c0,7.3,2.3,14.2,6.7,20c4.2,5.4,6.9,13,7.7,21.3
		c0.3,3.3,2.5,6,5.5,7v0.1c0,3.7,1.6,7.1,4.4,9.5c1.2,2.7,3.9,4.5,7,4.5h2.3c3.1,0,5.8-1.8,7-4.5c2.8-2.4,4.4-5.9,4.4-9.5v-0.2
		c2.8-1.1,4.9-3.7,5.1-6.9c0.7-7.5,3.7-15.4,8.4-21.8c4.1-5.6,6.3-12.2,6.3-19.2C178.8,189,164.2,174.5,146.3,174.5z M150.1,261.5
		c-0.1,1.4-1.2,2.5-2.6,2.5h-2.3c-1.4,0-2.6-1.1-2.6-2.5c-2.1-1.3-3.5-3.5-3.7-6.1h14.9C153.6,258,152.2,260.3,150.1,261.5z
		 M168.4,223.1c-5.2,7-8.6,15.8-9.4,24.4c-0.1,1.1-0.8,2.1-1.7,2.5h-3.4h-15H135c-0.9-0.5-1.6-1.4-1.7-2.5
		c-0.8-8.4-3.5-17.2-8.7-23.9c-3.6-4.7-5.7-10.5-5.7-16.9c0.1-14.5,12-26.8,26.5-27.2c0.3,0,0.6,0,0.9,0c15.1,0,27.4,12.3,27.4,27.4
		C173.7,213,171.7,218.6,168.4,223.1z"/>
	<path class="st1" d="M253.4,391.4c-1.6,0-2.4-0.1-4.1-0.1c0,2.5-0.1,3.7-0.1,6.2c1.6,0,2.4,0,4,0.1c1,0,1.8-0.2,2.4-0.8
		c0.6-0.5,0.9-1.3,0.9-2.2c0-0.9-0.3-1.7-0.8-2.3C255.2,391.7,254.4,391.4,253.4,391.4z"/>
</g>
</svg>
